<svg height="15rem" id="Layer_1" data-name="Layer 1" xmlns="http://www.w3.org/2000/svg" xmlns:xlink="http://www.w3.org/1999/xlink" viewBox="0 0 600 600"><defs><style>.cls-1,.cls-4,.cls-5,.cls-7,.cls-8{fill:none;}.cls-2{fill:#adddd7;opacity:0.8;}.cls-3{clip-path:url(#clip-path);}.cls-4{stroke:#231f20;}.cls-4,.cls-5,.cls-7,.cls-8{stroke-miterlimit:10;stroke-width:5px;}.cls-5{stroke:#fff;}.cls-6{clip-path:url(#clip-path-2);}.cls-7{stroke:#f58038;}.cls-8{stroke:#50c1b5;}</style><clipPath id="clip-path"><circle class="cls-1" cx="347.6" cy="170.27" r="127.58"/></clipPath><clipPath id="clip-path-2"><circle class="cls-1" cx="304" cy="240.32" r="127.58"/></clipPath></defs><title>illustrasjon</title><circle class="cls-2" cx="283" cy="282.59" r="127.58"/><g class="cls-3"><line class="cls-4" x1="194.42" y1="41.06" x2="31.33" y2="301.04"/><line class="cls-4" x1="209.24" y1="41.06" x2="46.14" y2="301.04"/><line class="cls-4" x1="225.15" y1="41.06" x2="62.05" y2="301.04"/><line class="cls-4" x1="239.96" y1="41.06" x2="76.87" y2="301.04"/><line class="cls-4" x1="253.79" y1="41.06" x2="90.69" y2="301.04"/><line class="cls-4" x1="268.6" y1="41.06" x2="105.51" y2="301.04"/><line class="cls-5" x1="435.45" y1="41.06" x2="272.36" y2="301.04"/><line class="cls-5" x1="450.27" y1="41.06" x2="287.18" y2="301.04"/><line class="cls-5" x1="466.18" y1="41.06" x2="303.08" y2="301.04"/><line class="cls-5" x1="481" y1="41.06" x2="317.9" y2="301.04"/><line class="cls-5" x1="494.82" y1="41.06" x2="331.72" y2="301.04"/><line class="cls-5" x1="509.64" y1="41.06" x2="346.54" y2="301.04"/><line class="cls-5" x1="525.54" y1="41.06" x2="362.44" y2="301.04"/><line class="cls-5" x1="540.36" y1="41.06" x2="377.26" y2="301.04"/><line class="cls-5" x1="555.78" y1="41.06" x2="392.68" y2="301.04"/><line class="cls-5" x1="570.6" y1="41.06" x2="407.5" y2="301.04"/><line class="cls-5" x1="586.5" y1="41.06" x2="423.41" y2="301.04"/><line class="cls-5" x1="601.32" y1="41.06" x2="438.23" y2="301.04"/><line class="cls-5" x1="615.14" y1="41.06" x2="452.05" y2="301.04"/><line class="cls-5" x1="629.96" y1="41.06" x2="466.86" y2="301.04"/><line class="cls-5" x1="645.87" y1="41.06" x2="482.77" y2="301.04"/><line class="cls-5" x1="660.69" y1="41.06" x2="497.59" y2="301.04"/></g><g class="cls-6"><line class="cls-7" x1="150.83" y1="111.11" x2="-12.27" y2="371.09"/><line class="cls-7" x1="165.64" y1="111.11" x2="2.55" y2="371.09"/><line class="cls-7" x1="181.55" y1="111.11" x2="18.45" y2="371.09"/><line class="cls-7" x1="196.37" y1="111.11" x2="33.27" y2="371.09"/><line class="cls-7" x1="210.19" y1="111.11" x2="47.09" y2="371.09"/><line class="cls-7" x1="225.01" y1="111.11" x2="61.91" y2="371.09"/><line class="cls-8" x1="240.91" y1="111.11" x2="77.81" y2="371.09"/><line class="cls-8" x1="255.73" y1="111.11" x2="92.63" y2="371.09"/><line class="cls-8" x1="271.15" y1="111.11" x2="108.05" y2="371.09"/><line class="cls-8" x1="285.97" y1="111.11" x2="122.87" y2="371.09"/><line class="cls-8" x1="301.88" y1="111.11" x2="138.78" y2="371.09"/><line class="cls-8" x1="316.69" y1="111.11" x2="153.6" y2="371.09"/><line class="cls-8" x1="330.51" y1="111.11" x2="167.42" y2="371.09"/><line class="cls-8" x1="345.33" y1="111.11" x2="182.24" y2="371.09"/><line class="cls-8" x1="361.24" y1="111.11" x2="198.14" y2="371.09"/><line class="cls-8" x1="376.06" y1="111.11" x2="212.96" y2="371.09"/><line class="cls-5" x1="542.91" y1="111.11" x2="379.81" y2="371.09"/><line class="cls-5" x1="557.73" y1="111.11" x2="394.63" y2="371.09"/><line class="cls-5" x1="571.55" y1="111.11" x2="408.45" y2="371.09"/><line class="cls-5" x1="586.37" y1="111.11" x2="423.27" y2="371.09"/><line class="cls-5" x1="602.27" y1="111.11" x2="439.17" y2="371.09"/><line class="cls-5" x1="617.09" y1="111.11" x2="453.99" y2="371.09"/></g></svg>